<svg xmlns="http://www.w3.org/2000/svg" version="1.1" xmlns:xlink="http://www.w3.org/1999/xlink" width="1000" height="1000"><metadata><rdf:RDF xmlns:rdf="http://www.w3.org/1999/02/22-rdf-syntax-ns#" xmlns:dc="http://purl.org/dc/elements/1.1/"><rdf:Description><dc:creator>RealFaviconGenerator</dc:creator><dc:source>https://realfavicongenerator.net</dc:source></rdf:Description></rdf:RDF></metadata><style>
    #light-icon {
      display: inline;
    }
    #dark-icon {
      display: none;
    }

    @media (prefers-color-scheme: dark) {
      #light-icon {
        display: none;
      }
      #dark-icon {
        display: inline;
      }
    }
  </style><g id="light-icon"><svg xmlns="http://www.w3.org/2000/svg" version="1.1" xmlns:xlink="http://www.w3.org/1999/xlink" width="1000" height="1000"><g clip-path="url(#SvgjsClipPath1204)"><rect width="1000" height="1000" fill="#faf9f6"></rect><g transform="matrix(0.9765625,0,0,0.9765625,0,0)"><svg xmlns="http://www.w3.org/2000/svg" width="1024" height="1024" viewBox="0 0 1024 1024" fill="#1c1917"><path d="M940 512c0-236.378-191.622-428-428-428S84 275.622 84 512s191.622 428 428 428v84C229.23 1024 0 794.77 0 512S229.23 0 512 0s512 229.23 512 512-229.23 512-512 512v-84c236.378 0 428-191.622 428-428"></path><path d="M225 761.5 461.5 313 354 679.5zm340.5-73L512 262l-54.5 426.5L512 900zm232.5 73L561.5 313 669 679.5z"></path><circle cx="512" cy="170" r="40"></circle><circle cx="396" cy="262" r="40"></circle><circle cx="628" cy="262" r="40"></circle></svg></g></g><defs><clipPath id="SvgjsClipPath1204"><rect width="1000" height="1000" x="0" y="0" rx="500" ry="500"></rect></clipPath></defs></svg></g><g id="dark-icon"><svg xmlns="http://www.w3.org/2000/svg" version="1.1" xmlns:xlink="http://www.w3.org/1999/xlink" width="1000" height="1000"><g clip-path="url(#SvgjsClipPath1205)"><rect width="1000" height="1000" fill="#121212"></rect><g transform="matrix(0.9765625,0,0,0.9765625,0,0)"><svg xmlns="http://www.w3.org/2000/svg" width="1024" height="1024" viewBox="0 0 1024 1024" fill="#f4f4f5"><path d="M940 512c0-236.378-191.622-428-428-428S84 275.622 84 512s191.622 428 428 428v84C229.23 1024 0 794.77 0 512S229.23 0 512 0s512 229.23 512 512-229.23 512-512 512v-84c236.378 0 428-191.622 428-428"></path><path d="M225 761.5 461.5 313 354 679.5zm340.5-73L512 262l-54.5 426.5L512 900zm232.5 73L561.5 313 669 679.5z"></path><circle cx="512" cy="170" r="40"></circle><circle cx="396" cy="262" r="40"></circle><circle cx="628" cy="262" r="40"></circle></svg></g></g><defs><clipPath id="SvgjsClipPath1205"><rect width="1000" height="1000" x="0" y="0" rx="500" ry="500"></rect></clipPath></defs></svg></g></svg>